<svg xmlns="http://www.w3.org/2000/svg" width="48" height="48" viewBox="0 0 48 48"><defs><style>.cls-1{fill:#49aaee;}.cls-2{fill:#4c7ee7;}.cls-3{fill:#f1f2f2;}.cls-4{fill:#d0d7df;}.cls-5{fill:none;stroke:#474c54;stroke-linecap:round;stroke-linejoin:round;stroke-width:2px;}</style></defs><title>44-Mail Box-file</title><g id="_44-Mail_Box-file" data-name="44-Mail Box-file"><g id="_Group_" data-name="&lt;Group&gt;"><path class="cls-1" d="M47,29V44a3,3,0,0,1-3,3H4a3,3,0,0,1-3-3V4A2.938,2.938,0,0,1,4,1H44a2.938,2.938,0,0,1,3,3Z"/></g><path class="cls-2" d="M43,6V26H34a3,3,0,0,0-3,3v4H17V29a3,3,0,0,0-3-3H5V6A.979.979,0,0,1,6,5H42A.979.979,0,0,1,43,6Z"/><path class="cls-3" d="M31,38v3a1,1,0,0,1-1,1H18a1,1,0,0,1-1-1V38Z"/><path class="cls-4" d="M39,11H31a2.006,2.006,0,0,1-2-2V1Z"/><path class="cls-3" d="M39,11V26H34a3,3,0,0,0-3,3v4H17V29a3,3,0,0,0-3-3H9V3a2.006,2.006,0,0,1,2-2H29V9a2.006,2.006,0,0,0,2,2Z"/><path class="cls-5" d="M47,29V4a2.938,2.938,0,0,0-3-3H35"/><path class="cls-5" d="M47,29V44a3,3,0,0,1-3,3H4a3,3,0,0,1-3-3V4A2.938,2.938,0,0,1,4,1H5"/><path class="cls-5" d="M5,26h9a3,3,0,0,1,3,3v4H31V29a3,3,0,0,1,3-3h9"/><path class="cls-5" d="M17,38v3a1,1,0,0,0,1,1H30a1,1,0,0,0,1-1V38"/><polyline class="cls-5" points="14 38 17 38 31 38 34 38"/><path class="cls-5" d="M39,11H31a2.006,2.006,0,0,1-2-2V7"/><path class="cls-5" d="M9,26V3a2.006,2.006,0,0,1,2-2H29L39,11V26"/><polyline class="cls-5" points="19 17 23 13 27 17"/><line class="cls-5" x1="23" y1="13" x2="23" y2="25"/></g></svg>